<svg xmlns="http://www.w3.org/2000/svg" xmlns:xlink="http://www.w3.org/1999/xlink" width="500" zoomAndPan="magnify" viewBox="0 0 375 374.999991" height="500" preserveAspectRatio="xMidYMid meet" version="1.0"><path fill="#4b5563" d="M 63.484375 0 L 311.507812 0 C 328.972656 0 344.84375 7.140625 356.347656 18.644531 C 367.851562 30.148438 374.992188 46.023438 374.992188 63.484375 L 374.992188 311.507812 C 374.992188 328.972656 367.851562 344.84375 356.347656 356.347656 C 344.84375 367.851562 328.96875 374.992188 311.507812 374.992188 L 63.484375 374.992188 C 46.019531 374.992188 30.148438 367.851562 18.644531 356.347656 C 7.140625 344.84375 0 328.96875 0 311.507812 L 0 63.484375 C 0 46.019531 7.140625 30.148438 18.644531 18.644531 C 30.148438 7.140625 46.019531 0 63.484375 0 Z M 311.507812 10.253906 L 63.484375 10.253906 C 48.851562 10.253906 35.542969 16.242188 25.894531 25.894531 C 16.242188 35.542969 10.253906 48.851562 10.253906 63.484375 L 10.253906 311.507812 C 10.253906 326.140625 16.242188 339.449219 25.894531 349.097656 C 35.542969 358.746094 48.851562 364.738281 63.484375 364.738281 L 311.507812 364.738281 C 326.140625 364.738281 339.449219 358.75 349.097656 349.097656 C 358.746094 339.449219 364.738281 326.140625 364.738281 311.507812 L 364.738281 63.484375 C 364.738281 48.851562 358.75 35.542969 349.097656 25.894531 C 339.449219 16.242188 326.140625 10.253906 311.507812 10.253906 Z M 311.507812 10.253906 " fill-opacity="1" fill-rule="nonzero"/><path fill="#4b5563" d="M 74.921875 23.078125 L 300.066406 23.078125 C 314.332031 23.078125 327.292969 28.910156 336.6875 38.304688 C 346.082031 47.699219 351.914062 60.660156 351.914062 74.921875 L 351.914062 300.066406 C 351.914062 314.332031 346.082031 327.292969 336.6875 336.6875 C 327.292969 346.082031 314.332031 351.914062 300.066406 351.914062 L 74.921875 351.914062 C 60.660156 351.914062 47.699219 346.082031 38.304688 336.6875 C 28.910156 327.292969 23.078125 314.332031 23.078125 300.066406 L 23.078125 74.921875 C 23.078125 60.660156 28.910156 47.699219 38.304688 38.304688 C 47.699219 28.910156 60.660156 23.078125 74.921875 23.078125 Z M 300.066406 33.332031 L 74.921875 33.332031 C 63.492188 33.332031 53.09375 38.011719 45.554688 45.554688 C 38.015625 53.089844 33.332031 63.492188 33.332031 74.921875 L 33.332031 300.066406 C 33.332031 311.5 38.011719 321.898438 45.554688 329.4375 C 53.089844 336.976562 63.492188 341.660156 74.921875 341.660156 L 300.066406 341.660156 C 311.5 341.660156 321.898438 336.980469 329.4375 329.4375 C 336.976562 321.898438 341.660156 311.5 341.660156 300.066406 L 341.660156 74.921875 C 341.660156 63.492188 336.980469 53.09375 329.4375 45.554688 C 321.898438 38.015625 311.5 33.332031 300.066406 33.332031 Z M 300.066406 33.332031 " fill-opacity="1" fill-rule="nonzero"/><path fill="#4b5563" d="M 82.53125 84.847656 L 149.125 84.847656 C 150.945312 84.847656 152.546875 85.796875 153.457031 87.230469 L 296.582031 281.996094 C 298.253906 284.273438 297.757812 287.476562 295.484375 289.144531 C 294.570312 289.8125 293.507812 290.136719 292.460938 290.132812 L 292.460938 290.148438 L 225.863281 290.148438 C 224.042969 290.148438 222.441406 289.195312 221.53125 287.761719 L 78.40625 92.996094 C 76.734375 90.71875 77.230469 87.519531 79.507812 85.847656 C 80.417969 85.179688 81.480469 84.855469 82.53125 84.859375 Z M 146.546875 95.101562 L 92.644531 95.101562 L 228.441406 279.894531 L 282.34375 279.894531 Z M 146.546875 95.101562 " fill-opacity="1" fill-rule="nonzero"/><path fill="#4b5563" d="M 243.265625 84.84375 L 278.03125 84.84375 C 280.863281 84.84375 283.15625 87.140625 283.15625 89.96875 C 283.15625 91.320312 282.636719 92.542969 281.78125 93.460938 L 215.625 178.132812 C 213.890625 180.355469 210.679688 180.75 208.457031 179.015625 C 208.078125 178.71875 207.75 178.378906 207.480469 178.011719 L 190.625 155.085938 C 189.183594 153.113281 189.355469 150.453125 190.902344 148.6875 L 239.238281 86.824219 C 240.246094 85.539062 241.746094 84.863281 243.261719 84.863281 L 243.261719 84.84375 Z M 267.542969 95.097656 L 245.742188 95.097656 L 201.167969 152.148438 L 211.734375 166.527344 Z M 181.132812 222.285156 L 129.660156 288.164062 C 128.652344 289.449219 127.152344 290.125 125.636719 290.125 L 125.636719 290.144531 L 90.867188 290.144531 C 88.035156 290.144531 85.742188 287.847656 85.742188 285.019531 C 85.742188 283.671875 86.261719 282.445312 87.117188 281.527344 L 156.410156 192.839844 C 158.144531 190.617188 161.359375 190.222656 163.578125 191.957031 C 163.957031 192.253906 164.285156 192.59375 164.554688 192.960938 L 181.410156 215.886719 C 182.851562 217.859375 182.679688 220.519531 181.132812 222.285156 Z M 123.160156 279.894531 L 170.871094 218.824219 L 160.304688 204.445312 L 101.359375 279.894531 Z M 123.160156 279.894531 " fill-opacity="1" fill-rule="nonzero"/></svg>